# xmcd
#
# Track frame offsets: 
#        150
#        28095
#        41284
#        65938
#        81106
#        96660
#        120971
#        143681
#        166121
#        184811
#        200943
#        216107
#        235467
#
# Disc length: 3205 seconds
#
# Revision: 0
# Processed by: cddbd v1.5.2PL0 Copyright (c) Steve Scherf et al.
# Submitted via: ExactAudioCopy v1.3
#
DISCID=bd0c830d
DTITLE=Dawn Tyler Watson - Mad Love
DYEAR=2019
DGENRE=Blues
TTITLE0=Alligator
TTITLE1=Don't Make Me Mad
TTITLE2=Feels Good
TTITLE3=This and That
TTITLE4=You're The Only One For Me
TTITLE5=Bad Seed
TTITLE6=Masochistic Heart
TTITLE7=Lost
TTITLE8=Away Too Fast
TTITLE9=Love To Burn
TTITLE10=I Look Good
TTITLE11=The River
TTITLE12=Alligator Outro (Hidden Track)
EXTD=
EXTT0=
EXTT1=
EXTT2=
EXTT3=
EXTT4=
EXTT5=
EXTT6=
EXTT7=
EXTT8=
EXTT9=
EXTT10=
EXTT11=
EXTT12=
PLAYORDER=
